<svg version="1.1" viewBox="0.0 0.0 960.0 720.0" fill="none" stroke="none" stroke-linecap="square" stroke-miterlimit="10" xmlns:xlink="http://www.w3.org/1999/xlink" xmlns="http://www.w3.org/2000/svg"><clipPath id="p.0"><path d="m0 0l960.0 0l0 720.0l-960.0 0l0 -720.0z" clip-rule="nonzero"/></clipPath><g clip-path="url(#p.0)"><path fill="#000000" fill-opacity="0.0" d="m0 0l960.0 0l0 720.0l-960.0 0z" fill-rule="evenodd"/><path fill="#ffffff" d="m365.28873 306.76657l0 0c0 -4.4734497 3.6264343 -8.099915 8.099884 -8.099915l171.1073 0c2.1481934 0 4.208435 0.85339355 5.727478 2.372406c1.519043 1.519043 2.3724365 3.5792847 2.3724365 5.7275085l0 32.39862c0 4.4734497 -3.6264648 8.099915 -8.099915 8.099915l-171.1073 0c-4.4734497 0 -8.099884 -3.6264648 -8.099884 -8.099915z" fill-rule="evenodd"/><path stroke="#000000" stroke-width="1.0" stroke-linejoin="round" stroke-linecap="butt" d="m365.28873 306.76657l0 0c0 -4.4734497 3.6264343 -8.099915 8.099884 -8.099915l171.1073 0c2.1481934 0 4.208435 0.85339355 5.727478 2.372406c1.519043 1.519043 2.3724365 3.5792847 2.3724365 5.7275085l0 32.39862c0 4.4734497 -3.6264648 8.099915 -8.099915 8.099915l-171.1073 0c-4.4734497 0 -8.099884 -3.6264648 -8.099884 -8.099915z" fill-rule="evenodd"/><path fill="#000000" d="m401.57312 337.36588l-3.515625 0l0 -22.40625q-1.265625 1.21875 -3.328125 2.4375q-2.0625 1.203125 -3.703125 1.796875l0 -3.390625q2.953125 -1.390625 5.15625 -3.359375q2.203125 -1.96875 3.125 -3.828125l2.265625 0l0 28.75zm27.480469 -3.375l0 3.375l-18.921875 0q-0.046875 -1.265625 0.40625 -2.4375q0.71875 -1.9375 2.3125 -3.8125q1.59375 -1.875 4.59375 -4.34375q4.671875 -3.828125 6.3125 -6.0625q1.640625 -2.234375 1.640625 -4.21875q0 -2.09375 -1.5 -3.53125q-1.484375 -1.4375 -3.890625 -1.4375q-2.53125 0 -4.0625 1.53125q-1.515625 1.515625 -1.546875 4.21875l-3.609375 -0.375q0.375 -4.046875 2.796875 -6.15625q2.421875 -2.125 6.5 -2.125q4.125 0 6.515625 2.28125q2.40625 2.28125 2.40625 5.671875q0 1.71875 -0.703125 3.375q-0.703125 1.65625 -2.328125 3.5q-1.625 1.828125 -5.421875 5.03125q-3.15625 2.65625 -4.0625 3.609375q-0.890625 0.9375 -1.484375 1.90625l14.046875 0zm72.578125 3.375l-3.515625 0l0 -22.40625q-1.265625 1.21875 -3.328125 2.4375q-2.0625 1.203125 -3.703125 1.796875l0 -3.390625q2.953125 -1.390625 5.15625 -3.359375q2.203125 -1.96875 3.125 -3.828125l2.265625 0l0 28.75zm9.027344 -7.5625l3.515625 -0.46875q0.59375 2.984375 2.046875 4.3125q1.46875 1.3125 3.546875 1.3125q2.484375 0 4.1875 -1.71875q1.71875 -1.71875 1.71875 -4.25q0 -2.421875 -1.59375 -4.0q-1.578125 -1.578125 -4.015625 -1.578125q-1.0 0 -2.484375 0.390625l0.390625 -3.078125q0.359375 0.03125 0.578125 0.03125q2.234375 0 4.03125 -1.171875q1.796875 -1.171875 1.796875 -3.609375q0 -1.9375 -1.3125 -3.203125q-1.296875 -1.265625 -3.375 -1.265625q-2.046875 0 -3.421875 1.296875q-1.359375 1.28125 -1.75 3.859375l-3.515625 -0.625q0.640625 -3.53125 2.921875 -5.46875q2.296875 -1.953125 5.6875 -1.953125q2.34375 0 4.3125 1.015625q1.984375 1.0 3.03125 2.734375q1.046875 1.734375 1.046875 3.6875q0 1.859375 -1.0 3.390625q-1.0 1.515625 -2.953125 2.40625q2.546875 0.59375 3.953125 2.4375q1.40625 1.84375 1.40625 4.625q0 3.75 -2.734375 6.359375q-2.734375 2.609375 -6.921875 2.609375q-3.765625 0 -6.265625 -2.25q-2.484375 -2.25 -2.828125 -5.828125z" fill-rule="nonzero"/><path fill="#ffffff" d="m365.28873 85.33612l0 0c0 -4.4734497 3.6264343 -8.099899 8.099884 -8.099899l171.1073 0c2.1481934 0 4.208435 0.8533783 5.727478 2.372406c1.519043 1.5190277 2.3724365 3.5792694 2.3724365 5.7274933l0 32.39863c0 4.4734497 -3.6264648 8.099899 -8.099915 8.099899l-171.1073 0c-4.4734497 0 -8.099884 -3.6264496 -8.099884 -8.099899z" fill-rule="evenodd"/><path stroke="#000000" stroke-width="1.0" stroke-linejoin="round" stroke-linecap="butt" d="m365.28873 85.33612l0 0c0 -4.4734497 3.6264343 -8.099899 8.099884 -8.099899l171.1073 0c2.1481934 0 4.208435 0.8533783 5.727478 2.372406c1.519043 1.5190277 2.3724365 3.5792694 2.3724365 5.7274933l0 32.39863c0 4.4734497 -3.6264648 8.099899 -8.099915 8.099899l-171.1073 0c-4.4734497 0 -8.099884 -3.6264496 -8.099884 -8.099899z" fill-rule="evenodd"/><path fill="#000000" d="m429.0536 112.56043l0 3.375l-18.921875 0q-0.046875 -1.265625 0.40625 -2.4375q0.71875 -1.9375 2.3125 -3.8125q1.59375 -1.875 4.59375 -4.34375q4.671875 -3.828125 6.3125 -6.0625q1.640625 -2.234375 1.640625 -4.21875q0 -2.09375 -1.5 -3.53125q-1.484375 -1.4375 -3.890625 -1.4375q-2.53125 0 -4.0625 1.53125q-1.515625 1.515625 -1.546875 4.21875l-3.609375 -0.375q0.375 -4.046875 2.796875 -6.15625q2.421875 -2.125 6.5 -2.125q4.125 0 6.515625 2.28125q2.40625 2.28125 2.40625 5.671875q0 1.71875 -0.703125 3.375q-0.703125 1.65625 -2.328125 3.5q-1.625 1.828125 -5.421875 5.03125q-3.15625 2.65625 -4.0625 3.609375q-0.890625 0.9375 -1.484375 1.90625l14.046875 0zm59.359375 -4.1875l3.515625 -0.46875q0.59375 2.984375 2.046875 4.3125q1.46875 1.3125 3.546875 1.3125q2.484375 0 4.1875 -1.71875q1.71875 -1.71875 1.71875 -4.25q0 -2.421875 -1.59375 -4.0q-1.578125 -1.578125 -4.015625 -1.578125q-1.0 0 -2.484375 0.390625l0.390625 -3.078125q0.359375 0.03125 0.578125 0.03125q2.234375 0 4.03125 -1.171875q1.796875 -1.171875 1.796875 -3.609375q0 -1.9375 -1.3125 -3.203125q-1.296875 -1.265625 -3.375 -1.265625q-2.046875 0 -3.421875 1.296875q-1.359375 1.28125 -1.75 3.859375l-3.515625 -0.625q0.640625 -3.53125 2.921875 -5.46875q2.296875 -1.953125 5.6875 -1.953125q2.34375 0 4.3125 1.015625q1.984375 1.0 3.03125 2.734375q1.046875 1.734375 1.046875 3.6875q0 1.859375 -1.0 3.390625q-1.0 1.515625 -2.953125 2.40625q2.546875 0.59375 3.953125 2.4375q1.40625 1.84375 1.40625 4.625q0 3.75 -2.734375 6.359375q-2.734375 2.609375 -6.921875 2.609375q-3.765625 0 -6.265625 -2.25q-2.484375 -2.25 -2.828125 -5.828125z" fill-rule="nonzero"/><path fill="#ffffff" d="m357.1888 339.26248l0 0c4.4734497 0 8.099915 3.6264343 8.099915 8.099884l0 206.00494c0 2.1481934 -0.85339355 4.208435 -2.372406 5.727478c-1.519043 1.519043 -3.5792847 2.3723755 -5.7275085 2.3723755l-32.39862 0c-4.4734497 0 -8.099915 -3.6264038 -8.099915 -8.0998535l0 -206.00494c0 -4.4734497 3.6264648 -8.099884 8.099915 -8.099884z" fill-rule="evenodd"/><path stroke="#000000" stroke-width="1.0" stroke-linejoin="round" stroke-linecap="butt" d="m357.1888 339.26248l0 0c4.4734497 0 8.099915 3.6264343 8.099915 8.099884l0 206.00494c0 2.1481934 -0.85339355 4.208435 -2.372406 5.727478c-1.519043 1.519043 -3.5792847 2.3723755 -5.7275085 2.3723755l-32.39862 0c-4.4734497 0 -8.099915 -3.6264038 -8.099915 -8.0998535l0 -206.00494c0 -4.4734497 3.6264648 -8.099884 8.099915 -8.099884z" fill-rule="evenodd"/><path fill="#000000" d="m326.5895 394.48007l0 -3.515625l22.40625 0q-1.21875 -1.265625 -2.4375 -3.328125q-1.203125 -2.0625 -1.796875 -3.703125l3.390625 0q1.390625 2.953125 3.359375 5.15625q1.96875 2.203125 3.828125 3.125l0 2.265625l-28.75 0zm0 19.277344l0 -3.515625l22.40625 0q-1.21875 -1.265625 -2.4375 -3.328125q-1.203125 -2.0625 -1.796875 -3.703125l3.390625 0q1.390625 2.953125 3.359375 5.15625q1.96875 2.203125 3.828125 3.125l0 2.265625l-28.75 0zm0 77.8125l0 -3.515625l22.40625 0q-1.21875 -1.265625 -2.4375 -3.328125q-1.203125 -2.0625 -1.796875 -3.703125l3.390625 0q1.390625 2.953125 3.359375 5.15625q1.96875 2.203125 3.828125 3.125l0 2.265625l-28.75 0zm14.125 8.996094q5.078125 0 8.171875 1.046875q3.09375 1.046875 4.765625 3.109375q1.6875 2.0625 1.6875 5.1875q0 2.2968445 -0.9375 4.0312195q-0.921875 1.75 -2.671875 2.875q-1.734375 1.140625 -4.25 1.78125q-2.515625 0.640625 -6.765625 0.640625q-5.046875 0 -8.140625 -1.03125q-3.09375 -1.03125 -4.78125 -3.09375q-1.6875 -2.0625 -1.6875 -5.2030945q0 -4.140625 2.96875 -6.5q3.578125 -2.84375 11.640625 -2.84375zm0 3.625q-7.046875 0 -9.390625 1.640625q-2.328125 1.65625 -2.328125 4.078125q0 2.4218445 2.34375 4.0624695q2.34375 1.65625 9.375 1.65625q7.0625 0 9.390625 -1.65625q2.328125 -1.640625 2.328125 -4.1093445q0 -2.421875 -2.046875 -3.859375q-2.625 -1.8125 -9.671875 -1.8125z" fill-rule="nonzero"/><path fill="#ffffff" d="m593.0943 339.26248l0 0c4.4734497 0 8.099915 3.6264343 8.099915 8.099884l0 206.00494c0 2.1481934 -0.85339355 4.208435 -2.3723755 5.727478c-1.519043 1.519043 -3.5792847 2.3723755 -5.727539 2.3723755l-32.39862 0c-4.4734497 0 -8.0998535 -3.6264038 -8.0998535 -8.0998535l0 -206.00494c0 -4.4734497 3.6264038 -8.099884 8.0998535 -8.099884z" fill-rule="evenodd"/><path stroke="#000000" stroke-width="1.0" stroke-linejoin="round" stroke-linecap="butt" d="m593.0943 339.26248l0 0c4.4734497 0 8.099915 3.6264343 8.099915 8.099884l0 206.00494c0 2.1481934 -0.85339355 4.208435 -2.3723755 5.727478c-1.519043 1.519043 -3.5792847 2.3723755 -5.727539 2.3723755l-32.39862 0c-4.4734497 0 -8.0998535 -3.6264038 -8.0998535 -8.0998535l0 -206.00494c0 -4.4734497 3.6264038 -8.099884 8.0998535 -8.099884z" fill-rule="evenodd"/><path fill="#000000" d="m584.12 420.2418l-0.28125 -3.5q2.078125 -0.46875 3.015625 -1.328125q1.5 -1.421875 1.5 -3.515625q0 -1.671875 -0.9375 -2.953125q-1.203125 -1.65625 -3.53125 -2.609375q-2.328125 -0.953125 -6.625 -1.0q1.9375 1.265625 2.875 3.09375q0.9375 1.84375 0.9375 3.859375q0 3.515625 -2.59375 5.984375q-2.578125 2.46875 -6.6875 2.46875q-2.6875 0 -5.015625 -1.15625q-2.3125 -1.15625 -3.546875 -3.1875q-1.21875 -2.03125 -1.21875 -4.609375q0 -4.40625 3.234375 -7.1875q3.234375 -2.765625 10.65625 -2.765625q8.296875 0 12.0625 3.078125q3.28125 2.671875 3.28125 7.203125q0 3.375 -1.890625 5.53125q-1.890625 2.15625 -5.234375 2.59375zm-12.34375 -14.359375q-1.8125 0 -3.484375 0.765625q-1.65625 0.78125 -2.53125 2.15625q-0.859375 1.390625 -0.859375 2.921875q0 2.21875 1.796875 3.8125q1.796875 1.609375 4.875 1.609375q2.96875 0 4.671875 -1.578125q1.71875 -1.578125 1.71875 -3.984375q0 -2.375 -1.71875 -4.046875q-1.703125 -1.65625 -4.46875 -1.65625zm15.609375 74.15625l3.375 0l0 18.546875l-2.734375 0q-2.90625 -2.734375 -7.734375 -5.421875q-4.828125 -2.6875 -9.921875 -4.15625q-3.59375 -1.046875 -7.875 -1.34375l0 -3.609375q3.375 0.046875 8.15625 1.3125q4.796875 1.28125 9.234375 3.65625q4.453125 2.375 7.5 5.046875l0 -14.03125z" fill-rule="nonzero"/><path fill="#ffffff" d="m357.1875 95.5538l0 0c4.4734497 0 8.099915 3.6264496 8.099915 8.099899l0 206.00493c0 2.1482239 -0.85339355 4.2084656 -2.372406 5.7275085c-1.519043 1.5190125 -3.5792847 2.372406 -5.7275085 2.372406l-32.39862 0c-4.4734497 0 -8.099915 -3.6264648 -8.099915 -8.099915l0 -206.00493c0 -4.4734497 3.6264648 -8.099899 8.099915 -8.099899z" fill-rule="evenodd"/><path stroke="#000000" stroke-width="1.0" stroke-linejoin="round" stroke-linecap="butt" d="m357.1875 95.5538l0 0c4.4734497 0 8.099915 3.6264496 8.099915 8.099899l0 206.00493c0 2.1482239 -0.85339355 4.2084656 -2.372406 5.7275085c-1.519043 1.5190125 -3.5792847 2.372406 -5.7275085 2.372406l-32.39862 0c-4.4734497 0 -8.099915 -3.6264648 -8.099915 -8.099915l0 -206.00493c0 -4.4734497 3.6264648 -8.099899 8.099915 -8.099899z" fill-rule="evenodd"/><path fill="#000000" d="m326.5882 171.53311l0 -3.515625l22.40625 0q-1.21875 -1.265625 -2.4375 -3.328125q-1.203125 -2.0625 -1.796875 -3.703125l3.390625 0q1.390625 2.953125 3.359375 5.15625q1.96875 2.203125 3.828125 3.125l0 2.265625l-28.75 0zm14.125 64.5625q5.078125 0 8.171875 1.046875q3.09375 1.046875 4.765625 3.109375q1.6875 2.0625 1.6875 5.1875q0 2.296875 -0.9375 4.03125q-0.921875 1.75 -2.671875 2.875q-1.734375 1.140625 -4.25 1.78125q-2.515625 0.640625 -6.765625 0.640625q-5.046875 0 -8.140625 -1.03125q-3.09375 -1.03125 -4.78125 -3.09375q-1.6875 -2.0625 -1.6875 -5.203125q0 -4.140625 2.96875 -6.5q3.578125 -2.84375 11.640625 -2.84375zm0 3.625q-7.046875 0 -9.390625 1.640625q-2.328125 1.65625 -2.328125 4.078125q0 2.421875 2.34375 4.0625q2.34375 1.65625 9.375 1.65625q7.0625 0 9.390625 -1.65625q2.328125 -1.640625 2.328125 -4.109375q0 -2.421875 -2.046875 -3.859375q-2.625 -1.8125 -9.671875 -1.8125z" fill-rule="nonzero"/><path fill="#ffffff" d="m593.0943 95.5538l0 0c4.4734497 0 8.099915 3.6264496 8.099915 8.099899l0 206.00493c0 2.1482239 -0.85339355 4.2084656 -2.3723755 5.7275085c-1.519043 1.5190125 -3.5792847 2.372406 -5.727539 2.372406l-32.39862 0c-4.4734497 0 -8.0998535 -3.6264648 -8.0998535 -8.099915l0 -206.00493c0 -4.4734497 3.6264038 -8.099899 8.0998535 -8.099899z" fill-rule="evenodd"/><path stroke="#000000" stroke-width="1.0" stroke-linejoin="round" stroke-linecap="butt" d="m593.0943 95.5538l0 0c4.4734497 0 8.099915 3.6264496 8.099915 8.099899l0 206.00493c0 2.1482239 -0.85339355 4.2084656 -2.3723755 5.7275085c-1.519043 1.5190125 -3.5792847 2.372406 -5.727539 2.372406l-32.39862 0c-4.4734497 0 -8.0998535 -3.6264648 -8.0998535 -8.099915l0 -206.00493c0 -4.4734497 3.6264038 -8.099899 8.0998535 -8.099899z" fill-rule="evenodd"/><path fill="#000000" d="m562.495 169.56436l6.859375 0l0 -12.421875l3.21875 0l18.5625 13.0625l0 2.875l-18.5625 0l0 3.859375l-3.21875 0l0 -3.859375l-6.859375 0l0 -3.515625zm10.078125 0l12.90625 0l-12.90625 -8.96875l0 8.96875zm-2.578125 66.53125l0.3125 3.703125q-2.6875 0.40625 -4.046875 1.890625q-1.359375 1.5 -1.359375 3.609375q0 2.546875 1.90625 4.296875q1.921875 1.765625 5.078125 1.765625q3.015625 0 4.75 -1.703125q1.734375 -1.6875 1.734375 -4.421875q0 -1.6875 -0.765625 -3.0625q-0.765625 -1.359375 -2.0 -2.140625l0.421875 -3.3125l14.71875 2.78125l0 14.234375l-3.359375 0l0 -11.421875l-7.703125 -1.546875q1.796875 2.578125 1.796875 5.40625q0 3.75 -2.59375 6.328125q-2.59375 2.578125 -6.6875 2.578125q-3.875 0 -6.71875 -2.265625q-3.46875 -2.75 -3.46875 -7.515625q0 -3.90625 2.1875 -6.375q2.1875 -2.46875 5.796875 -2.828125z" fill-rule="nonzero"/><path fill="#ffffff" d="m365.28873 543.37024l0 0c0 -4.4734497 3.6264343 -8.099915 8.099884 -8.099915l171.1073 0c2.1481934 0 4.208435 0.85339355 5.727478 2.3724365c1.519043 1.5189819 2.3724365 3.5792236 2.3724365 5.727478l0 32.39862c0 4.4734497 -3.6264648 8.099915 -8.099915 8.099915l-171.1073 0c-4.4734497 0 -8.099884 -3.6264648 -8.099884 -8.099915z" fill-rule="evenodd"/><path stroke="#000000" stroke-width="1.0" stroke-linejoin="round" stroke-linecap="butt" d="m365.28873 543.37024l0 0c0 -4.4734497 3.6264343 -8.099915 8.099884 -8.099915l171.1073 0c2.1481934 0 4.208435 0.85339355 5.727478 2.3724365c1.519043 1.5189819 2.3724365 3.5792236 2.3724365 5.727478l0 32.39862c0 4.4734497 -3.6264648 8.099915 -8.099915 8.099915l-171.1073 0c-4.4734497 0 -8.099884 -3.6264648 -8.099884 -8.099915z" fill-rule="evenodd"/><path fill="#000000" d="m411.10046 567.34454l3.375 -0.3125q0.4375 2.390625 1.640625 3.46875q1.21875 1.0625 3.109375 1.0625q1.625 0 2.84375 -0.734375q1.21875 -0.75 2.0 -1.984375q0.78125 -1.25 1.3125 -3.359375q0.53125 -2.109375 0.53125 -4.296875q0 -0.234375 -0.03125 -0.703125q-1.046875 1.6875 -2.875 2.734375q-1.828125 1.046875 -3.953125 1.046875q-3.5625 0 -6.03125 -2.578125q-2.453125 -2.578125 -2.453125 -6.796875q0 -4.359375 2.5625 -7.015625q2.578125 -2.65625 6.453125 -2.65625q2.78125 0 5.09375 1.5q2.328125 1.5 3.515625 4.296875q1.203125 2.78125 1.203125 8.046875q0 5.484375 -1.1875 8.75q-1.1875 3.25 -3.546875 4.953125q-2.34375 1.6875 -5.515625 1.6875q-3.359375 0 -5.484375 -1.859375q-2.125 -1.875 -2.5625 -5.25zm14.390625 -12.640625q0 -3.015625 -1.609375 -4.796875q-1.609375 -1.78125 -3.875 -1.78125q-2.34375 0 -4.078125 1.921875q-1.734375 1.90625 -1.734375 4.953125q0 2.734375 1.640625 4.453125q1.65625 1.703125 4.078125 1.703125q2.4375 0 4.0 -1.703125q1.578125 -1.71875 1.578125 -4.75zm68.3125 3.734375q-2.1875 -0.796875 -3.25 -2.28125q-1.046875 -1.484375 -1.046875 -3.5625q0 -3.125 2.234375 -5.25q2.25 -2.125 5.984375 -2.125q3.75 0 6.03125 2.1875q2.28125 2.171875 2.28125 5.296875q0 1.984375 -1.046875 3.46875q-1.03125 1.46875 -3.171875 2.265625q2.640625 0.859375 4.015625 2.78125q1.375 1.90625 1.375 4.5625q0 3.671875 -2.59375 6.171875q-2.59375 2.5 -6.828125 2.5q-4.25 0 -6.84375 -2.5q-2.59375 -2.515625 -2.59375 -6.265625q0 -2.796875 1.40625 -4.671875q1.421875 -1.890625 4.046875 -2.578125zm-0.703125 -5.953125q0 2.03125 1.296875 3.328125q1.3125 1.28125 3.40625 1.28125q2.03125 0 3.328125 -1.28125q1.296875 -1.28125 1.296875 -3.140625q0 -1.921875 -1.34375 -3.234375q-1.328125 -1.328125 -3.328125 -1.328125q-2.0 0 -3.328125 1.296875q-1.328125 1.28125 -1.328125 3.078125zm-1.140625 13.21875q0 1.5 0.703125 2.90625q0.71875 1.40625 2.125 2.1875q1.40625 0.765625 3.03125 0.765625q2.515625 0 4.15625 -1.609375q1.640625 -1.625 1.640625 -4.125q0 -2.546875 -1.6875 -4.203125q-1.6875 -1.65625 -4.21875 -1.65625q-2.484375 0 -4.125 1.640625q-1.625 1.640625 -1.625 4.09375z" fill-rule="nonzero"/></g></svg>